<?xml version="1.0" encoding="UTF-8"?><svg id="_レイヤー_1" xmlns="http://www.w3.org/2000/svg" viewBox="0 0 1922.26 479.21"><defs><style>.cls-1{fill:#231815;}</style></defs><path class="cls-1" d="M1.71,456.93c33.45,11.99,69.37,15.94,104.63,11.32,17.87-2.34,35.44-6.77,52.2-13.42,8.66-3.44,16.98-7.82,25.83-10.75,12.37-4.09,24.02-2.8,36.64-.86,40.13,6.16,81.05,5.64,121.55,6.71,42.16,1.11,84.32,2.22,126.48,3.33,169.86,4.47,339.72,8.94,509.59,13.41,38.55,1.01,78.79,4.68,115.81-8.5,19.59-6.97,37.07-14.31,58.25-14.91s41.76,.72,62.56,1.27c41.89,1.1,83.78,2.2,125.67,3.3s85.52,2.43,127.64,10.76c38.43,7.61,76.49,18.98,115.87,20.48,31.33,1.19,61.87-5.1,89.48-20.15,50.38-27.47,87.54-79.97,92.55-137.61,1.17-13.45-.32-27.04-13.17-34.24-10.84-6.07-24.87-6.62-36.79-4.08-19.77,4.21-45.59,22.24-34.53,45.51,11.74,24.69,44.64,18.99,62.04,5.01,13.42-10.78,23.78-25.41,34.03-39.09,11.58-15.46,22.49-31.42,32.68-47.83s19.07-32.32,27.62-49.03c1.46-2.86-2.85-5.39-4.32-2.52-16.09,31.46-34.53,61.66-55.37,90.2-16.83,23.05-45.27,68.47-80.02,52.53-15.18-6.96-18.27-24.45-7.01-36.42,9.43-10.03,24.85-14.98,38.36-14.77,7.34,.11,15.54,1.47,21.84,5.45,10.35,6.53,10.57,18.34,9.64,29.27-1.22,14.39-4.68,28.62-9.84,42.09-20.53,53.58-69.07,96.52-125.64,107.78-36.7,7.31-74.38,.44-110.37-7.45-35.9-7.86-71.29-15.53-108.04-18.19-37.91-2.74-76.02-2.96-114-3.96s-77.71-2.04-116.57-3.06c-17.41-.46-35.1-1.14-52.09,3.39s-33.41,13.25-51.15,16.94c-36.8,7.66-76.21,3.32-113.48,2.34-155.81-4.1-311.62-8.2-467.43-12.3-39.1-1.03-78.21-2.06-117.31-3.09-38.83-1.02-77.81-1.14-116.58-3.51-18.61-1.14-37.11-5.65-55.69-6.12-16.82-.43-30.92,7.84-46.08,13.85-32.31,12.81-67.73,17.58-102.3,14.03-17.75-1.83-35.09-5.92-51.87-11.93-3.03-1.09-4.34,3.74-1.33,4.82h0Z"/><path class="cls-1" d="M1381.31,349.51c-.14-8.98-.28-17.95-.43-26.93-.07-4.4-.14-8.8-.21-13.2-.07-4.27-.2-8.55-1.07-12.75-.91-4.45-2.63-8.74-4.93-12.64-1.63-2.77-5.96-.26-4.32,2.52,1.92,3.24,3.33,6.7,4.19,10.37,.91,3.87,1.04,7.83,1.11,11.78,.15,8.71,.28,17.42,.42,26.13l.23,14.71c.05,3.21,5.05,3.22,5,0h0Z"/><path class="cls-1" d="M1372.28,274.15c-2.41-1.62-5.25-2.37-8.06-2.93-3.07-.62-6.14-1.2-9.21-1.8-1.28-.25-2.76,.36-3.08,1.75-.28,1.24,.37,2.81,1.75,3.08,2.98,.58,5.95,1.15,8.93,1.74,1.31,.26,2.63,.54,3.91,.94s2.09,.77,3.25,1.55,2.77,.22,3.42-.9c.72-1.23,.23-2.67-.9-3.42h0Z"/><path class="cls-1" d="M1354.28,270.1c-2.98-7.39-5.78-14.87-7.75-22.6s-3.04-15.41-3.95-23.21-1.68-15.75-2.94-23.56c-.63-3.94-1.4-7.86-2.38-11.74-.92-3.62-2.2-7.06-.9-10.75,2.1-5.95,7.34-10.53,11.7-14.83,2.33-2.3,4.63-4.63,6.65-7.21,1.03-1.33,2.01-2.69,2.87-4.14,.67-1.14,1.27-2.48,2.3-3.36s2.28-.33,3.47,.08c1.85,.64,3.69,1.07,5.63,1.31,3.8,.48,7.63,.15,11.41-.36,8.11-1.09,16.17-2.54,24.25-3.88,16.03-2.66,32.16-5.15,48.45-5.32,2.03-.02,4.06,0,6.09,.05,3.22,.08,3.22-4.92,0-5-16.81-.43-33.52,1.82-50.07,4.5-8.36,1.35-16.7,2.82-25.07,4.11-3.79,.58-7.6,1.18-11.45,1.15-1.88-.02-3.74-.19-5.56-.65s-3.69-1.36-5.69-1.47c-3.81-.2-6.09,2.94-7.8,5.88-1.6,2.75-3.55,5.18-5.74,7.49-4.59,4.85-9.77,9.18-13.46,14.82-2.09,3.2-3.78,6.92-3.57,10.82s1.74,8.04,2.6,12c1.7,7.83,2.62,15.8,3.51,23.76s1.78,16.21,3.35,24.21c1.58,8.04,4.05,15.83,6.97,23.47,.74,1.94,1.5,3.86,2.28,5.79,.5,1.25,1.67,2.13,3.08,1.75,1.19-.33,2.25-1.82,1.75-3.08h0Z"/><path class="cls-1" d="M1456.21,142.93c5.61,5.63,9.23,13.27,12.49,20.42,3.31,7.26,5.96,14.83,8,22.54,4.11,15.52,5.64,31.67,4.54,47.68-.62,9.03-2.12,17.98-4.45,26.73-.83,3.11,3.99,4.44,4.82,1.33,4.28-16.06,5.8-32.86,4.55-49.43-1.27-16.76-5.28-33.2-11.93-48.63-1.83-4.26-3.87-8.43-6.12-12.49s-4.96-8.27-8.37-11.68c-2.27-2.28-5.81,1.25-3.54,3.54h0Z"/><path class="cls-1" d="M1477.2,261.71c-6.8,.44-13.6,.87-20.41,1.31-1.35,.09-2.5,1.09-2.5,2.5,0,1.29,1.15,2.59,2.5,2.5,6.8-.44,13.6-.87,20.41-1.31,1.35-.09,2.5-1.09,2.5-2.5,0-1.29-1.15-2.59-2.5-2.5h0Z"/><path class="cls-1" d="M1452.78,267.37c8.15,16.13,12.97,33.95,14.06,52,.31,5.17,.31,10.34,.03,15.51-.17,3.22,4.83,3.21,5,0,1.02-18.7-1.83-37.65-8.32-55.22-1.87-5.05-4.03-10-6.46-14.81-1.45-2.87-5.77-.34-4.32,2.52h0Z"/><path class="cls-1" d="M1468.83,339.78c4.2,.76,8.4,1.53,12.59,2.29,1.61,.29,3.55,.44,4.98,1.3,1.31,.78,1.85,2.26,2.31,3.64,2.64,7.78,3.58,15.99,3.88,24.17,.31,8.39,.06,16.8-.03,25.19-.02,2.2-.05,4.41-.07,6.61-.01,.98-.02,1.96-.03,2.94,0,.47,.16,1.59-.15,2.02-.21,.29-.65,.33-1.01,.37-1.06,.14-2.16,.15-3.23,.22-2.12,.13-4.24,.23-6.36,.32-4.4,.18-8.81,.28-13.22,.29-1.9,0-3.82,.05-5.72-.09-1.38-.11-2.97-.37-4.09-1.24-1.9-1.48-2.03-4.14-2.13-6.5-.11-2.85,.03-5.88-.93-8.61-1.15-3.28-3.66-5.56-7.04-6.43-3.66-.94-7.7-.73-11.44-.79-8.35-.15-16.77,.17-24.95,1.95-13.23,2.88-26.6,10.61-32.45,23.35-.7,1.53-1.3,3.09-1.78,4.7-.91,3.09,3.91,4.41,4.82,1.33,3.89-13.16,16.68-21.2,29.38-24.25,8.16-1.96,16.61-2.23,24.97-2.08,2.08,.04,4.16,.09,6.25,.18,1.6,.06,3.25,.13,4.76,.71,2.54,.97,3.08,3.36,3.25,5.75,.22,2.97,.02,5.98,.7,8.9,.8,3.44,3.09,6.06,6.43,7.26,3.63,1.3,7.9,.9,11.68,.87,4.41-.03,8.81-.15,13.22-.36,2.2-.1,4.4-.23,6.6-.37,1.95-.13,4.02-.26,5.55-1.63s1.84-3.41,1.87-5.37c.04-2.2,.05-4.41,.07-6.61,.09-8.68,.33-17.37,.14-26.05-.19-8.39-.91-16.86-3.18-24.97-1.05-3.74-2.25-8.17-6.07-9.99-1.73-.83-3.56-1.16-5.44-1.5l-6.42-1.17c-2.14-.39-4.28-.78-6.42-1.17-1.33-.24-2.7,.36-3.08,1.75-.33,1.21,.41,2.83,1.75,3.08h0Z"/><path class="cls-1" d="M1380.41,345.58c-9.58,1.85-19.11,3.96-28.57,6.33-4,1-8.77,1.69-11.42,5.21s-2.05,8.66-2.06,12.83c0,4.87-.02,9.74-.03,14.6,0,2.48,0,4.95-.01,7.43s-.09,4.88,.26,7.29c1.31,8.96,10.21,13.21,18.38,13.83,5.21,.39,10.41-.64,15.62-.18,3.52,.32,7.89,1.93,9.28,5.52,.49,1.26,1.68,2.13,3.08,1.75,1.2-.33,2.23-1.81,1.75-3.08-1.44-3.73-4.33-6.3-7.99-7.81-3.94-1.62-8.28-1.61-12.46-1.37-7.08,.4-16.75,1.18-21.27-5.67-2.3-3.49-1.64-8.04-1.63-12.01,0-4.7,.02-9.41,.03-14.11,0-2.39,0-4.79,.01-7.18,0-2.04-.14-4.15,.12-6.18,.2-1.56,.74-2.92,2.13-3.75,1.62-.97,3.61-1.3,5.42-1.76,10.16-2.59,20.4-4.88,30.7-6.87,1.33-.26,2.08-1.85,1.75-3.08-.38-1.39-1.75-2-3.08-1.75h0Z"/><path class="cls-1" d="M1356.27,189.2c1.84,5.9,3.64,11.83,5.53,17.71,.43,1.33,1.02,2.59,2.48,2.99,1.62,.45,2.99-.77,4.34-1.46,2.32-1.19,4.86-1.88,7.32-2.71s5.29-1.7,7.19-3.62c2.06-2.08,2.41-4.99,2.38-7.78-.05-4.95-.54-11.69-5.42-14.45-2.84-1.61-6.44-.98-9.56-.86s-6.15,.04-8.55,2.2,1.15,5.69,3.54,3.54c1.08-.97,3.47-.68,4.78-.73,2.02-.08,4.21-.44,6.22-.17,3.5,.47,3.81,5.89,3.94,8.53,.08,1.71,.35,3.81-.35,5.43s-2.83,2.14-4.26,2.65c-1.92,.68-3.87,1.26-5.78,1.95-2.12,.77-4.05,1.76-6.01,2.85l1.26-.34-.37,.05,1.26,.34c.51,.83,.67,.99,.48,.48l-.15-.47-.36-1.17-.73-2.33-1.45-4.66c-.97-3.11-1.94-6.22-2.91-9.32s-5.78-1.75-4.82,1.33h0Z"/><path class="cls-1" d="M1426.05,177.95c-.28,5.48,.16,10.99,1.28,16.36,.27,1.27,.45,2.75,1.36,3.75,1.06,1.16,2.62,1.25,4.09,1.3,2.66,.09,5.36-.35,7.93-1.02s5.02-1.54,7.46-2.48,4.15-2.71,4.04-5.5c-.1-2.46-1.28-4.75-2.17-6.99-1.01-2.55-1.92-5.17-3.07-7.66-1.43-3.11-4.72-3.07-7.68-3.23-3.13-.17-6.27-.18-9.41-.05-1.35,.05-2.5,1.11-2.5,2.5,0,1.31,1.14,2.56,2.5,2.5,2.28-.09,4.56-.12,6.84-.05,1,.03,2,.07,2.99,.13,.57,.03,1.14,.07,1.71,.11,.2,.02,.87,0,1.06,.14,.21,.17,.46,1.21,.58,1.52,.43,1.07,.85,2.14,1.28,3.21,.82,2.05,1.71,4.09,2.44,6.17,.21,.6,.4,1.24,.43,1.7,0,.17,.02,.39,0,.57,.05-.34-.06,.13-.08,.14,.35-.29-.2-.06-.26-.04-1.97,.67-3.9,1.45-5.89,2.04s-4.06,1.11-6.16,1.25c-.94,.06-1.93-.1-2.85,0-1.4,.14,.98,.37,.67,.8,.03-.04-.15-.6-.17-.69-.15-.61-.28-1.23-.4-1.85-.97-4.81-1.27-9.72-1.02-14.62,.07-1.35-1.2-2.5-2.5-2.5-1.41,0-2.43,1.15-2.5,2.5h0Z"/><path class="cls-1" d="M1399.94,219.22c5.41,.46,10.89,.04,16.17-1.23,1.21-.29,2.41-.63,3.59-1.01,1.28-.41,2.57-1.01,3.91-1.18,.56-.07,1.44-.1,1.91,.31,.54,.47,.48,1.45,.6,2.12,.51,2.92,2.69,4.12,5.46,4.33s5.43,.29,8.14,.52c.63,.05,.9-.05,1.07,.57,.3,1.1,.14,2.44,.17,3.57,.07,2.76,.11,5.52,.12,8.29,0-.18-.01,.83,0,.83,.08,.02,.15-.17,.22-.21,.64-.37-.64-.06-.89-.02-1.45,.21-2.91,.41-4.37,.61-2.34,.33-4.7,.8-7.07,.86-1.81,.05-3.4-.16-4.43-1.77-1.34-2.11-2.8-3.73-5.29-4.41-2.18-.6-4.47-.43-6.7-.3-2.81,.17-5.63,.33-8.44,.5-3.91,.23-8.32,.64-11.31,3.48-1.77,1.68-2.09,3.65-2.45,5.93-.03,.2-.22,.9-.22,.89,.15-.25,.53,0-.13-.05-.2-.02-.41-.01-.61-.01-1.52-.01-3.04-.07-4.56-.11-3.16-.07-6.32-.15-9.48-.22-.02,0-1.49-.15-1.52-.11l.57,.6-.08-.32c.05-.19-.07-.77-.08-.92-.13-1.54-.22-3.07-.28-4.61l-1.84,2.41c3.57-1.12,7.14-2.24,10.71-3.36,2.79-.87,5.63-1.74,8.19-3.18,2.42-1.36,4.57-3.33,5.71-5.89,1.46-3.28,1.19-6.82,.73-10.29-.18-1.34-1.02-2.5-2.5-2.5-1.21,0-2.68,1.15-2.5,2.5,.35,2.62,.88,5.66-.23,8.17-.89,2.01-2.79,3.27-4.69,4.2-2.22,1.09-4.64,1.74-6.99,2.48-3.25,1.02-6.5,2.04-9.75,3.06-1.02,.32-1.88,1.29-1.84,2.41,.05,1.39,.13,2.77,.24,4.15s.13,2.96,.94,4.21c1.69,2.63,5.71,2.02,8.38,2.08,3.08,.07,6.16,.14,9.24,.22,2.92,.07,5.88-.07,7.09-3.22,.36-.95,.41-1.94,.55-2.93,.14-.93,.35-1.43,.85-1.93,1.12-1.12,3.13-1.6,4.85-1.86,2.37-.36,4.94-.37,7.37-.51,2.7-.16,5.51-.56,8.21-.34,.81,.06,1.72,.22,2.39,.73,.93,.72,1.4,2.05,2.14,2.95,1.66,2,4.18,2.77,6.7,2.89,2.67,.13,5.39-.46,8.03-.83,1.46-.2,2.91-.41,4.37-.61s2.84-.24,4.04-1.07c2.48-1.72,1.75-5.61,1.72-8.2-.04-2.9,.11-5.94-.32-8.81-.47-3.11-2.62-4.66-5.64-4.93s-5.95-.49-8.9-.57c-.04,0-.17-.02-.22-.03,.33,.1,.08,.36,.07-.1-.02-.58-.2-1.3-.32-1.87-.33-1.47-1.19-2.7-2.42-3.55-2.7-1.87-5.94-1.16-8.82-.18-6.33,2.16-12.87,3-19.54,2.43-1.35-.12-2.5,1.23-2.5,2.5,0,1.45,1.15,2.38,2.5,2.5h0Z"/><path class="cls-1" d="M1837.76,189.88c-.36-.65-.32-1.43,.18-2.28,.6-1.03,1.43-1.72,2.71-2.12,1.58-.49,3.23-.5,4.87-.45,.55,.02,5.74,.12,5.77,.32,.01,.08-.72-.65-.74-.66-.04-.01-.02-.14,0-.15-.04,.03-.09,.37-.1,.43-.25,.92-.65,1.81-.99,2.7-.71,1.88-1.42,3.75-2.14,5.63-.66,1.73-1.23,3.53-2.03,5.2-.58,1.21-1.34,2.53-2.6,3.12-3.28,1.53-4.23-3.99-4.6-6.26-.22-1.33-1.87-2.08-3.08-1.75-1.42,.39-1.96,1.74-1.75,3.08,.38,2.38,.88,4.82,2.34,6.8s3.76,3.5,6.34,3.36c5.68-.3,7.81-5.91,9.52-10.42,.97-2.55,1.93-5.1,2.9-7.64,.87-2.29,2.03-5.07,.06-7.16-.92-.98-2.17-1.2-3.44-1.3-1.38-.11-2.77-.16-4.15-.24-2.44-.13-4.97-.18-7.34,.51-4.87,1.42-8.8,6.85-6.05,11.8,1.56,2.81,5.88,.29,4.32-2.52h0Z"/><path class="cls-1" d="M1836.43,175.82c3.35-10.6,3.71-22.05,1.24-32.87-2.24-9.79-6.88-20.5-14.96-26.87-2.02-1.59-4.19-2.88-6.63-3.74-2.11-.74-5.49-1.68-7.53-.38-1.25,.8-1.57,2.14-1.78,3.51-.24,1.54-.44,3.09-.6,4.64-.29,2.88-.41,5.77-.37,8.67,.17,11.59,2.93,23.15,8.1,33.53,5.43,10.91,15.31,21.14,28.41,20.68,3.21-.11,3.22-5.11,0-5-9.89,.35-17.63-6.85-22.31-14.89-5.06-8.69-8.03-18.77-8.91-28.77-.46-5.17-.38-10.39,.23-15.55,.07-.59,.15-1.17,.24-1.76,.04-.29,.09-.59,.14-.88,.1-.57,.36-.71-.46-.15-.94,.64-.56,.31-.07,.4,.3,.05,.61,.04,.92,.08,.43,.07,.87,.17,1.3,.28,1.97,.5,3.76,1.43,5.42,2.6,3.43,2.43,6.07,5.95,8.13,9.56,2.39,4.19,4.19,8.67,5.42,13.33,2.8,10.58,2.56,21.82-.73,32.26-.97,3.08,3.85,4.39,4.82,1.33h0Z"/><path class="cls-1" d="M1858.67,177.8c3.06-9.98,8.09-19.46,15.33-27.04,7.29-7.63,16.69-12.94,27.13-14.74,2.83-.49,5.72-.65,8.58-.54,1.39,.05,2.78,.16,4.15,.38,.8,.13,1.59,.27,2.38,.45,.26,.06,.53,.12,.79,.18,.26,.06,.52,.13,.79,.2,.42,.13,.44,.13,.04,0l-.64-1.1s.32-.29-.09,.29c-.14,.19-.24,.6-.32,.8-.25,.59-.52,1.18-.8,1.76-.65,1.35-1.35,2.68-2.1,3.97-1.44,2.48-3.06,4.85-4.78,7.14-3.47,4.61-7.38,8.9-11.25,13.17s-7.8,8.34-12.77,11.18-10.08,4.13-15.44,4.89c-6.32,.9-12.76,.85-19.13,.81-3.22-.02-3.22,4.98,0,5,12.14,.09,24.99,0,36.01-5.79,5.56-2.91,10.09-7.32,14.29-11.91s8.42-9.32,12.23-14.31c1.91-2.51,3.7-5.11,5.28-7.84,.71-1.24,1.38-2.5,2-3.79,.67-1.4,1.49-2.9,1.83-4.41,.44-1.96-.49-3.74-2.36-4.46-1.33-.51-2.8-.75-4.2-.99-2.87-.48-5.78-.71-8.69-.63-12.07,.33-23.66,5.31-32.7,13.21-9.85,8.6-16.54,20.4-20.34,32.8-.95,3.08,3.88,4.4,4.82,1.33h0Z"/><path class="cls-1" d="M1855.01,186.42l9.05,7.82c2.73,2.35,5.58,4.62,8.16,7.14,2.13,2.09,3.5,4.53,3.85,7.52s-.13,6.25-.8,9.27c-.84,3.81-1.97,7.56-3.11,11.29-.07,.23-.11,.52-.28,.67-.37,.32-1.39,.32-1.86,.33-1.28,.03-2.53-.29-3.68-.84-5.68-2.72-8.36-9.03-10.49-14.56-2.57-6.68-6.38-15.09-2.26-21.94,1.67-2.76-2.66-5.28-4.32-2.52-4.41,7.32-1.99,15.84,.8,23.25,2.7,7.18,5.53,14.87,12.27,19.24,3,1.95,6.66,2.87,10.19,2.05,2.14-.5,3.54-1.73,4.29-3.79,.7-1.94,1.22-3.96,1.79-5.95,2.08-7.31,4.36-15.97,.61-23.13-2.04-3.9-5.89-6.64-9.14-9.46-3.83-3.31-7.67-6.62-11.5-9.93-1.02-.88-2.53-1-3.54,0-.9,.9-1.03,2.65,0,3.54h0Z"/><path class="cls-1" d="M1830.56,180.38c-10.04-.79-20.12-.36-30.06,1.21-4.85,.76-9.61,1.87-14.35,3.13-2.34,.62-4.69,1.23-7.07,1.63-2.11,.36-4.37,.15-6.44,.68-2.36,.61-4.07,2.76-3.64,5.24,.36,2.04,2.02,3.59,3.75,4.58,2,1.15,4.35,1.88,6.5,2.69,2.33,.88,4.7,1.68,7.12,2.3,4.58,1.16,9.29,1.58,13.97,.82s8.32-3.06,12.06-5.72c1.95-1.39,3.94-2.71,6.26-3.39,2.55-.75,5.21-.96,7.81-1.39,4.55-.76,9.22-2.58,11.66-6.75,1.63-2.78-2.69-5.3-4.32-2.52s-5,3.79-8,4.33c-4.29,.79-8.55,1.03-12.46,3.16-3.38,1.84-6.18,4.64-9.73,6.18s-7.8,1.79-11.69,1.3c-4.21-.53-8.29-1.95-12.23-3.47-1.69-.65-3.77-1.19-5.21-2.35-.2-.16-.35-.42-.55-.57-.14-.11,.05-.62-.07,.23,0,.04-.18,.28-.23,.25,.07,.04,.83-.17,1.01-.19,2.16-.19,4.29-.31,6.44-.71s4.27-.95,6.38-1.51c4.36-1.15,8.73-2.19,13.18-2.94,9.86-1.65,19.94-2.01,29.9-1.22,1.35,.11,2.5-1.23,2.5-2.5,0-1.44-1.15-2.39-2.5-2.5h0Z"/><path class="cls-1" d="M1835.1,193.89c-11.75,9.9-20.46,24.03-23.47,39.15-.71,3.57-1.03,7.36-.11,10.93,.8,3.1,3.8,8.85,7.82,7.18,1.88-.78,3.16-3.08,4.19-4.74,1.14-1.82,2.12-3.74,3.11-5.65,2.07-3.99,4.07-8.03,5.97-12.1,4.34-9.28,8.24-18.76,11.7-28.4,.46-1.27-.51-2.74-1.75-3.08-1.39-.38-2.62,.47-3.08,1.75-2.73,7.6-5.73,15.1-9.03,22.46-3.29,7.35-6.69,14.81-10.8,21.75-.44,.74-.9,1.48-1.4,2.18-.21,.3-.42,.59-.65,.87-.03,.03-.4,.42-.39,.45l1.38-.06-.26-.25c-.76-1.14-1.52-2-1.91-3.37-.81-2.84-.53-5.93,.05-8.79,1.36-6.66,3.88-13.09,7.26-18.98,3.88-6.77,8.92-12.76,14.89-17.79,1.03-.87,.9-2.64,0-3.54-1.02-1.02-2.5-.87-3.54,0h0Z"/><path class="cls-1" d="M1485.81,93.81c-2.13,4.49-3.99,9.11-5.51,13.84-.82,2.54-1.19,5.04,.1,7.5,1.03,1.95,2.81,3.36,4.83,4.17,3.94,1.58,8.47,.53,11.63-2.18s4.86-7.28,4.81-11.46c-.06-4.83-2.26-9.53-6.35-12.19-1.13-.74-2.76-.23-3.42,.9-.71,1.22-.24,2.68,.9,3.42,4.6,2.99,5.11,10.48,1.65,14.68-.86,1.05-2.02,1.89-3.16,2.25-1.24,.39-2.41,.47-3.62,.15-1.13-.3-2.12-.82-2.78-1.96-.79-1.35-.1-2.89,.36-4.31,1.37-4.19,3-8.28,4.89-12.26,.58-1.22,.34-2.7-.9-3.42-1.09-.64-2.84-.33-3.42,.9h0Z"/><path class="cls-1" d="M1535.72,19.59c-2.03-2.58-5.53-3.49-8.68-3.07-3.53,.47-6.5,2.61-8.84,5.21-4.84,5.38-8.68,11.95-11.73,18.48s-5.46,13.73-6.84,20.98c-.35,1.84-.63,3.69-.87,5.54s-.36,3.67,.42,5.41c1.56,3.43,5.49,4.13,8.84,4.55,14.24,1.79,29.04-3.85,38.47-14.65,8.87-10.16,15.34-27.08,7.25-39.48-3.89-5.96-9.95-10.21-15.89-13.93-3.27-2.05-6.66-3.92-10.14-5.59-3.05-1.47-6.5-3.31-10.01-3.01-1.8,.15-3.34,.78-4.66,2.02-2.36,2.2,1.18,5.73,3.54,3.54,1.66-1.54,4.86,.04,6.56,.81,3.03,1.38,6,2.91,8.88,4.57,5.41,3.12,10.92,6.61,15.16,11.25,1.84,2.02,3.43,4.37,4.29,6.98,1.02,3.08,1.14,6.38,.69,9.58-.82,5.82-3.19,11.39-6.49,16.23-6.82,10-18.2,16.32-30.28,16.96-2.93,.15-5.98,.08-8.87-.52-.85-.18-2.13-.39-2.69-1.16-.72-.98-.17-2.86-.01-3.94,.9-6.38,2.56-12.65,4.87-18.66,2.54-6.61,5.98-12.89,10.1-18.64,1.86-2.6,3.9-5.46,6.82-6.93,2.22-1.12,4.98-.99,6.57,1.03,.84,1.06,2.66,.87,3.54,0,1.05-1.05,.84-2.47,0-3.54h0Z"/></svg>